<mxfile host="65bd71144e">
    <diagram id="Ni6t73bayncxDc60GTvv" name="v1.0">
        <mxGraphModel dx="1007" dy="599" grid="1" gridSize="10" guides="1" tooltips="1" connect="1" arrows="1" fold="1" page="1" pageScale="1" pageWidth="850" pageHeight="1100" background="#999999" math="0" shadow="0">
            <root>
                <mxCell id="0"/>
                <mxCell id="1" parent="0"/>
                <mxCell id="50" style="edgeStyle=none;html=1;exitX=0.446;exitY=1.01;exitDx=0;exitDy=0;entryX=-0.003;entryY=0.542;entryDx=0;entryDy=0;strokeColor=#FFFFCC;strokeWidth=2;startArrow=ERmandOne;startFill=0;endArrow=ERmany;endFill=0;entryPerimeter=0;exitPerimeter=0;" parent="1" source="58" target="48" edge="1">
                    <mxGeometry relative="1" as="geometry">
                        <Array as="points">
                            <mxPoint x="835" y="850"/>
                        </Array>
                    </mxGeometry>
                </mxCell>
                <mxCell id="60" style="edgeStyle=none;html=1;exitX=1.004;exitY=0.3;exitDx=0;exitDy=0;entryX=0;entryY=0.5;entryDx=0;entryDy=0;strokeColor=#FFFFCC;strokeWidth=2;startArrow=ERmandOne;startFill=0;endArrow=ERmany;endFill=0;exitPerimeter=0;" parent="1" source="2" target="58" edge="1">
                    <mxGeometry relative="1" as="geometry"/>
                </mxCell>
                <mxCell id="2" value="INVENTORY&lt;br&gt;id,&lt;br&gt;name&lt;br&gt;description,&lt;br&gt;stock&lt;br&gt;price&lt;br&gt;id_medicine_name&lt;br&gt;id_medicine_brand" style="whiteSpace=wrap;html=1;strokeWidth=2;strokeColor=#FFFFCC;" parent="1" vertex="1">
                    <mxGeometry x="555" y="700" width="120" height="130" as="geometry"/>
                </mxCell>
                <mxCell id="6" style="edgeStyle=none;html=1;exitX=0.5;exitY=1;exitDx=0;exitDy=0;entryX=0.53;entryY=-0.011;entryDx=0;entryDy=0;fontColor=#FFFFFF;endArrow=ERmany;endFill=0;startArrow=ERmandOne;startFill=0;strokeColor=#FFFFCC;strokeWidth=2;entryPerimeter=0;" parent="1" source="3" target="5" edge="1">
                    <mxGeometry relative="1" as="geometry">
                        <Array as="points"/>
                    </mxGeometry>
                </mxCell>
                <mxCell id="3" value="ROLE&lt;br&gt;(admin,usuario_normal)&lt;br&gt;id&lt;br&gt;description" style="whiteSpace=wrap;html=1;strokeWidth=2;strokeColor=#FFFFCC;" parent="1" vertex="1">
                    <mxGeometry x="405" y="380" width="140" height="70" as="geometry"/>
                </mxCell>
                <mxCell id="8" style="edgeStyle=none;html=1;exitX=-0.005;exitY=0.532;exitDx=0;exitDy=0;entryX=0.526;entryY=0.979;entryDx=0;entryDy=0;strokeColor=#FFFFCC;strokeWidth=2;fontColor=#FFFFFF;startArrow=ERmandOne;startFill=0;endArrow=ERmany;endFill=0;exitPerimeter=0;entryPerimeter=0;" parent="1" source="4" target="5" edge="1">
                    <mxGeometry relative="1" as="geometry">
                        <Array as="points">
                            <mxPoint x="475" y="614"/>
                        </Array>
                    </mxGeometry>
                </mxCell>
                <mxCell id="4" value="USER&lt;br&gt;id,&lt;br&gt;id_person&lt;br&gt;username,&lt;br&gt;password,&lt;br&gt;email,&lt;br&gt;Access_token,&lt;br&gt;refresh_token" style="whiteSpace=wrap;html=1;fontColor=#FFFFFF;strokeWidth=2;strokeColor=#FFFFCC;" parent="1" vertex="1">
                    <mxGeometry x="525" y="550" width="100" height="120" as="geometry"/>
                </mxCell>
                <mxCell id="5" value="ROLE_USER&lt;br&gt;id_user,&lt;br&gt;id_role" style="whiteSpace=wrap;html=1;strokeWidth=2;strokeColor=#FFFFCC;" parent="1" vertex="1">
                    <mxGeometry x="430" y="490" width="85" height="60" as="geometry"/>
                </mxCell>
                <mxCell id="18" style="edgeStyle=none;html=1;exitX=1;exitY=0.5;exitDx=0;exitDy=0;strokeColor=#FFFFCC;strokeWidth=2;fontColor=#FFFFFF;startArrow=ERmandOne;startFill=0;endArrow=ERmany;endFill=0;entryX=0.382;entryY=1.003;entryDx=0;entryDy=0;entryPerimeter=0;" parent="1" source="7" target="15" edge="1">
                    <mxGeometry relative="1" as="geometry">
                        <Array as="points">
                            <mxPoint x="925" y="415"/>
                        </Array>
                    </mxGeometry>
                </mxCell>
                <mxCell id="57" style="edgeStyle=none;html=1;exitX=1;exitY=0.669;exitDx=0;exitDy=0;entryX=0.554;entryY=-0.008;entryDx=0;entryDy=0;strokeColor=#FFFFCC;strokeWidth=2;startArrow=ERmandOne;startFill=0;endArrow=ERmany;endFill=0;exitPerimeter=0;entryPerimeter=0;" parent="1" source="67" target="42" edge="1">
                    <mxGeometry relative="1" as="geometry">
                        <Array as="points">
                            <mxPoint x="1195" y="520"/>
                        </Array>
                    </mxGeometry>
                </mxCell>
                <mxCell id="69" style="edgeStyle=none;html=1;exitX=0.792;exitY=1.008;exitDx=0;exitDy=0;entryX=0.018;entryY=0.661;entryDx=0;entryDy=0;entryPerimeter=0;strokeColor=#FFFFCC;strokeWidth=2;startArrow=ERmandOne;startFill=0;endArrow=ERmany;endFill=0;exitPerimeter=0;" parent="1" source="7" target="67" edge="1">
                    <mxGeometry relative="1" as="geometry">
                        <Array as="points">
                            <mxPoint x="795" y="520"/>
                        </Array>
                    </mxGeometry>
                </mxCell>
                <mxCell id="72" style="edgeStyle=none;html=1;exitX=0.5;exitY=1;exitDx=0;exitDy=0;entryX=0.667;entryY=-0.009;entryDx=0;entryDy=0;entryPerimeter=0;strokeColor=#FFFFCC;strokeWidth=2;startArrow=ERmandOne;startFill=0;endArrow=ERmany;endFill=0;" parent="1" source="7" target="71" edge="1">
                    <mxGeometry relative="1" as="geometry"/>
                </mxCell>
                <mxCell id="76" style="edgeStyle=none;html=1;exitX=0;exitY=0.75;exitDx=0;exitDy=0;entryX=0.685;entryY=0.008;entryDx=0;entryDy=0;strokeColor=#FFFFCC;strokeWidth=2;startArrow=ERmandOne;startFill=0;endArrow=ERmany;endFill=0;entryPerimeter=0;fillColor=#ffe6cc;" parent="1" source="7" target="4" edge="1">
                    <mxGeometry relative="1" as="geometry">
                        <Array as="points">
                            <mxPoint x="595" y="448"/>
                        </Array>
                    </mxGeometry>
                </mxCell>
                <mxCell id="78" style="edgeStyle=none;html=1;exitX=0.995;exitY=0.679;exitDx=0;exitDy=0;entryX=1.015;entryY=0.453;entryDx=0;entryDy=0;entryPerimeter=0;strokeColor=#FFFFCC;strokeWidth=2;startArrow=ERmandOne;startFill=0;endArrow=ERmany;endFill=0;exitPerimeter=0;" parent="1" source="79" target="43" edge="1">
                    <mxGeometry relative="1" as="geometry">
                        <Array as="points">
                            <mxPoint x="1275" y="450"/>
                            <mxPoint x="1275" y="750"/>
                        </Array>
                    </mxGeometry>
                </mxCell>
                <mxCell id="80" style="edgeStyle=none;html=1;exitX=1;exitY=0.779;exitDx=0;exitDy=0;strokeColor=#FFFFCC;strokeWidth=2;startArrow=ERmandOne;startFill=0;endArrow=ERmany;endFill=0;entryX=-0.005;entryY=0.669;entryDx=0;entryDy=0;entryPerimeter=0;exitPerimeter=0;" parent="1" source="7" target="79" edge="1">
                    <mxGeometry relative="1" as="geometry"/>
                </mxCell>
                <mxCell id="7" value="PERSON&lt;br&gt;id,&lt;br&gt;name&lt;br&gt;document_number,&lt;br&gt;id_document_type" style="whiteSpace=wrap;html=1;fontColor=#FFFFFF;strokeWidth=2;strokeColor=#FFFFCC;" parent="1" vertex="1">
                    <mxGeometry x="685" y="350" width="140" height="130" as="geometry"/>
                </mxCell>
                <mxCell id="11" style="edgeStyle=none;html=1;exitX=0.25;exitY=1;exitDx=0;exitDy=0;entryX=0.461;entryY=0.002;entryDx=0;entryDy=0;strokeColor=#FFFFCC;strokeWidth=2;fontColor=#FFFFFF;startArrow=ERmandOne;startFill=0;endArrow=ERmandOne;endFill=0;entryPerimeter=0;" parent="1" source="10" target="7" edge="1">
                    <mxGeometry relative="1" as="geometry"/>
                </mxCell>
                <mxCell id="10" value="DOCUMENT_TYPE&lt;br&gt;id,&lt;br&gt;description" style="whiteSpace=wrap;html=1;strokeWidth=2;strokeColor=#FFFFCC;" parent="1" vertex="1">
                    <mxGeometry x="720" y="230" width="120" height="50" as="geometry"/>
                </mxCell>
                <mxCell id="16" style="edgeStyle=none;html=1;exitX=0;exitY=0.5;exitDx=0;exitDy=0;entryX=0.764;entryY=0.003;entryDx=0;entryDy=0;strokeColor=#FFFFCC;strokeWidth=2;fontColor=#FFFFFF;startArrow=ERmandOne;startFill=0;endArrow=ERmany;endFill=0;entryPerimeter=0;" parent="1" source="12" target="15" edge="1">
                    <mxGeometry relative="1" as="geometry">
                        <Array as="points">
                            <mxPoint x="974" y="260"/>
                        </Array>
                    </mxGeometry>
                </mxCell>
                <mxCell id="12" value="CONTACT_TYPE&lt;br&gt;(corporativo,personal)&lt;br&gt;id,&lt;br&gt;name" style="whiteSpace=wrap;html=1;strokeWidth=2;strokeColor=#FFFFCC;" parent="1" vertex="1">
                    <mxGeometry x="1055" y="230" width="135" height="60" as="geometry"/>
                </mxCell>
                <mxCell id="17" style="edgeStyle=none;html=1;exitX=0.004;exitY=0.284;exitDx=0;exitDy=0;entryX=1;entryY=0.75;entryDx=0;entryDy=0;strokeColor=#FFFFCC;strokeWidth=2;fontColor=#FFFFFF;startArrow=ERmandOne;startFill=0;endArrow=ERmany;endFill=0;exitPerimeter=0;" parent="1" source="14" target="15" edge="1">
                    <mxGeometry relative="1" as="geometry">
                        <Array as="points">
                            <mxPoint x="1035" y="380"/>
                            <mxPoint x="1035" y="343"/>
                        </Array>
                    </mxGeometry>
                </mxCell>
                <mxCell id="14" value="CONTACT_CATEGORY&lt;br&gt;(email,phoneNumber,address)&lt;br&gt;id,&lt;br&gt;name" style="whiteSpace=wrap;html=1;strokeWidth=2;strokeColor=#FFFFCC;" parent="1" vertex="1">
                    <mxGeometry x="1055" y="360" width="185" height="70" as="geometry"/>
                </mxCell>
                <mxCell id="15" value="CONTACT&lt;br&gt;id_person&lt;br&gt;id_contact_type,&lt;br&gt;id_contact_category,&lt;br&gt;description" style="whiteSpace=wrap;html=1;strokeWidth=2;strokeColor=#FFFFCC;" parent="1" vertex="1">
                    <mxGeometry x="875" y="280" width="130" height="80" as="geometry"/>
                </mxCell>
                <mxCell id="34" style="edgeStyle=none;html=1;strokeColor=#FFFFCC;strokeWidth=2;startArrow=ERmandOne;startFill=0;endArrow=ERmany;endFill=0;entryX=1.008;entryY=0.664;entryDx=0;entryDy=0;exitX=-0.003;exitY=0.372;exitDx=0;exitDy=0;exitPerimeter=0;entryPerimeter=0;" parent="1" source="42" target="46" edge="1">
                    <mxGeometry relative="1" as="geometry">
                        <mxPoint x="795.4199999999998" y="868.29" as="targetPoint"/>
                        <mxPoint x="820" y="876.7432365041766" as="sourcePoint"/>
                        <Array as="points"/>
                    </mxGeometry>
                </mxCell>
                <mxCell id="28" style="edgeStyle=none;html=1;entryX=0.004;entryY=0.229;entryDx=0;entryDy=0;strokeColor=#FFFFCC;strokeWidth=2;startArrow=ERmandOne;startFill=0;endArrow=ERmany;endFill=0;exitX=1.008;exitY=0.573;exitDx=0;exitDy=0;exitPerimeter=0;entryPerimeter=0;" parent="1" source="27" target="2" edge="1">
                    <mxGeometry relative="1" as="geometry">
                        <mxPoint x="520.1399999999999" y="730.6700000000001" as="sourcePoint"/>
                        <Array as="points"/>
                    </mxGeometry>
                </mxCell>
                <mxCell id="27" value="MEDICINE_BRAND&lt;br&gt;id,&lt;br&gt;name," style="whiteSpace=wrap;html=1;strokeWidth=2;strokeColor=#FFFFCC;" parent="1" vertex="1">
                    <mxGeometry x="380" y="700" width="120" height="50" as="geometry"/>
                </mxCell>
                <mxCell id="42" value="BUYS&lt;br&gt;id,&lt;br&gt;buy_date&lt;br&gt;id_supplier" style="whiteSpace=wrap;html=1;fontColor=#FFFFFF;strokeWidth=2;strokeColor=#FFFFCC;" parent="1" vertex="1">
                    <mxGeometry x="1145" y="590" width="90" height="80" as="geometry"/>
                </mxCell>
                <mxCell id="51" style="edgeStyle=none;html=1;exitX=0.452;exitY=0.999;exitDx=0;exitDy=0;strokeColor=#FFFFCC;strokeWidth=2;startArrow=ERmandOne;startFill=0;endArrow=ERmany;endFill=0;entryX=1.01;entryY=0.558;entryDx=0;entryDy=0;entryPerimeter=0;exitPerimeter=0;" parent="1" source="43" target="48" edge="1">
                    <mxGeometry relative="1" as="geometry">
                        <Array as="points">
                            <mxPoint x="1185" y="850"/>
                        </Array>
                    </mxGeometry>
                </mxCell>
                <mxCell id="43" value="SELLS&lt;br&gt;id,&lt;br&gt;sell_date&lt;br&gt;id_employee&lt;br&gt;id_customer" style="whiteSpace=wrap;html=1;fontColor=#FFFFFF;strokeWidth=2;strokeColor=#FFFFCC;" parent="1" vertex="1">
                    <mxGeometry x="1140" y="710" width="100" height="90" as="geometry"/>
                </mxCell>
                <mxCell id="46" value="BUYED_MEDICINE&lt;br&gt;quantity&lt;br&gt;buy_price&lt;br&gt;buy_id,&lt;br&gt;medicine_id" style="whiteSpace=wrap;html=1;strokeWidth=2;strokeColor=#FFFFCC;" parent="1" vertex="1">
                    <mxGeometry x="935" y="560" width="130" height="90" as="geometry"/>
                </mxCell>
                <mxCell id="47" style="edgeStyle=none;html=1;strokeColor=#FFFFCC;strokeWidth=2;startArrow=ERmandOne;startFill=0;endArrow=ERmany;endFill=0;entryX=-0.002;entryY=0.662;entryDx=0;entryDy=0;entryPerimeter=0;exitX=0.442;exitY=0.005;exitDx=0;exitDy=0;exitPerimeter=0;" parent="1" source="58" target="46" edge="1">
                    <mxGeometry relative="1" as="geometry">
                        <mxPoint x="725" y="662.5" as="targetPoint"/>
                        <mxPoint x="745" y="700" as="sourcePoint"/>
                        <Array as="points">
                            <mxPoint x="835" y="620"/>
                        </Array>
                    </mxGeometry>
                </mxCell>
                <mxCell id="48" value="SELLED_MEDICINE&lt;br&gt;quantity&lt;br&gt;sell_price&lt;br&gt;sell_id,&lt;br&gt;medicine_id" style="whiteSpace=wrap;html=1;strokeWidth=2;strokeColor=#FFFFCC;" parent="1" vertex="1">
                    <mxGeometry x="945" y="800" width="120" height="90" as="geometry"/>
                </mxCell>
                <mxCell id="56" style="edgeStyle=none;html=1;exitX=1;exitY=0.5;exitDx=0;exitDy=0;strokeColor=#FFFFCC;strokeWidth=2;startArrow=ERmandOne;startFill=0;endArrow=ERmany;endFill=0;entryX=0.003;entryY=0.737;entryDx=0;entryDy=0;entryPerimeter=0;" parent="1" source="55" target="2" edge="1">
                    <mxGeometry relative="1" as="geometry">
                        <mxPoint x="580" y="790" as="targetPoint"/>
                    </mxGeometry>
                </mxCell>
                <mxCell id="55" value="CATEGORY&lt;br&gt;id,&lt;br&gt;name," style="whiteSpace=wrap;html=1;strokeWidth=2;strokeColor=#FFFFCC;" parent="1" vertex="1">
                    <mxGeometry x="400" y="770" width="85" height="50" as="geometry"/>
                </mxCell>
                <mxCell id="58" value="MEDICINE&lt;br&gt;id&lt;br&gt;name&lt;br&gt;description&lt;br&gt;id_inventory&lt;br&gt;expire_date" style="whiteSpace=wrap;html=1;strokeWidth=2;strokeColor=#FFFFCC;" parent="1" vertex="1">
                    <mxGeometry x="785" y="690" width="110" height="100" as="geometry"/>
                </mxCell>
                <mxCell id="77" style="edgeStyle=none;html=1;exitX=1.009;exitY=0.461;exitDx=0;exitDy=0;entryX=0.5;entryY=1;entryDx=0;entryDy=0;strokeColor=#FFFFCC;strokeWidth=2;startArrow=ERmandOne;startFill=0;endArrow=ERmany;endFill=0;exitPerimeter=0;" parent="1" source="65" target="71" edge="1">
                    <mxGeometry relative="1" as="geometry">
                        <Array as="points">
                            <mxPoint x="740" y="650"/>
                        </Array>
                    </mxGeometry>
                </mxCell>
                <mxCell id="65" value="POSITION&lt;br&gt;id&lt;br&gt;description" style="whiteSpace=wrap;html=1;strokeWidth=2;strokeColor=#FFFFCC;" parent="1" vertex="1">
                    <mxGeometry x="635" y="620" width="70" height="65" as="geometry"/>
                </mxCell>
                <mxCell id="67" value="SUPPLIER&lt;br&gt;id&lt;br&gt;id_person" style="whiteSpace=wrap;html=1;fontColor=#FFFFFF;strokeWidth=2;strokeColor=#FFFFCC;" parent="1" vertex="1">
                    <mxGeometry x="945" y="480" width="90" height="60" as="geometry"/>
                </mxCell>
                <mxCell id="74" style="edgeStyle=none;html=1;exitX=0.663;exitY=0.998;exitDx=0;exitDy=0;entryX=0;entryY=0.25;entryDx=0;entryDy=0;strokeWidth=2;startArrow=ERmandOne;startFill=0;endArrow=ERmany;endFill=0;exitPerimeter=0;strokeColor=#FFFFCC;" parent="1" source="71" target="43" edge="1">
                    <mxGeometry relative="1" as="geometry">
                        <Array as="points">
                            <mxPoint x="755" y="670"/>
                            <mxPoint x="1115" y="670"/>
                            <mxPoint x="1115" y="730"/>
                        </Array>
                    </mxGeometry>
                </mxCell>
                <mxCell id="71" value="EMPLOYEE&lt;br&gt;id&lt;br&gt;id_person&lt;br&gt;id_position" style="whiteSpace=wrap;html=1;fontColor=#FFFFFF;strokeWidth=2;strokeColor=#FFFFCC;" parent="1" vertex="1">
                    <mxGeometry x="695" y="540" width="90" height="60" as="geometry"/>
                </mxCell>
                <mxCell id="79" value="CUSTOMER&lt;br&gt;id&lt;br&gt;id_person" style="whiteSpace=wrap;html=1;fontColor=#FFFFFF;strokeWidth=2;strokeColor=#FFFFCC;" parent="1" vertex="1">
                    <mxGeometry x="945" y="410" width="90" height="60" as="geometry"/>
                </mxCell>
            </root>
        </mxGraphModel>
    </diagram>
    <diagram name="v2.0" id="MgzwCa9OIIXBNooWQdCd">
        <mxGraphModel dx="1857" dy="599" grid="1" gridSize="10" guides="1" tooltips="1" connect="1" arrows="1" fold="1" page="1" pageScale="1" pageWidth="850" pageHeight="1100" background="#999999" math="0" shadow="0">
            <root>
                <mxCell id="dS_Z-iAsA6ofLdKqUzIF-0"/>
                <mxCell id="dS_Z-iAsA6ofLdKqUzIF-1" parent="dS_Z-iAsA6ofLdKqUzIF-0"/>
                <mxCell id="9qdiHSnP6P3qedn_wyHt-0" style="edgeStyle=none;html=1;entryX=0.5;entryY=1;entryDx=0;entryDy=0;startArrow=ERmany;startFill=0;endArrow=ERmandOne;endFill=0;strokeWidth=2;strokeColor=#FFFFCC;" parent="dS_Z-iAsA6ofLdKqUzIF-1" source="E8_jX4T0FS_W__g-nmVm-2" target="E8_jX4T0FS_W__g-nmVm-4" edge="1">
                    <mxGeometry relative="1" as="geometry"/>
                </mxCell>
                <mxCell id="_HFQptYU_BMw_1H1PmQ_-1" style="edgeStyle=none;html=1;entryX=0.5;entryY=1;entryDx=0;entryDy=0;strokeColor=#FFFFCC;strokeWidth=2;startArrow=ERmany;startFill=0;endArrow=ERmandOne;endFill=0;exitX=0.75;exitY=0;exitDx=0;exitDy=0;" parent="dS_Z-iAsA6ofLdKqUzIF-1" source="E8_jX4T0FS_W__g-nmVm-2" target="E8_jX4T0FS_W__g-nmVm-5" edge="1">
                    <mxGeometry relative="1" as="geometry">
                        <Array as="points">
                            <mxPoint x="455" y="320"/>
                            <mxPoint x="545" y="320"/>
                        </Array>
                    </mxGeometry>
                </mxCell>
                <mxCell id="LCvmc8TwBV-O5PTUJR5Y-3" style="edgeStyle=none;html=1;exitX=1.004;exitY=0.165;exitDx=0;exitDy=0;entryX=0.003;entryY=0.799;entryDx=0;entryDy=0;strokeWidth=2;endArrow=ERmany;endFill=0;startArrow=ERmandOne;startFill=0;strokeColor=#FFFFCC;exitPerimeter=0;entryPerimeter=0;" parent="dS_Z-iAsA6ofLdKqUzIF-1" source="E8_jX4T0FS_W__g-nmVm-2" target="LCvmc8TwBV-O5PTUJR5Y-2" edge="1">
                    <mxGeometry relative="1" as="geometry">
                        <Array as="points"/>
                    </mxGeometry>
                </mxCell>
                <mxCell id="LCvmc8TwBV-O5PTUJR5Y-6" style="edgeStyle=none;html=1;exitX=0;exitY=0.5;exitDx=0;exitDy=0;entryX=0.588;entryY=1;entryDx=0;entryDy=0;entryPerimeter=0;strokeColor=#FFFFCC;strokeWidth=2;startArrow=ERmandOne;startFill=0;endArrow=ERmany;endFill=0;" parent="dS_Z-iAsA6ofLdKqUzIF-1" source="E8_jX4T0FS_W__g-nmVm-2" target="_HFQptYU_BMw_1H1PmQ_-2" edge="1">
                    <mxGeometry relative="1" as="geometry">
                        <Array as="points">
                            <mxPoint x="240" y="400"/>
                        </Array>
                    </mxGeometry>
                </mxCell>
                <mxCell id="t7uX6kNF_CkkwIp4jU8J-5" style="edgeStyle=none;html=1;exitX=0;exitY=0.75;exitDx=0;exitDy=0;entryX=1;entryY=0.5;entryDx=0;entryDy=0;strokeColor=#FFFFCC;strokeWidth=2;startArrow=ERmandOne;startFill=0;endArrow=ERmany;endFill=0;" parent="dS_Z-iAsA6ofLdKqUzIF-1" source="E8_jX4T0FS_W__g-nmVm-2" target="t7uX6kNF_CkkwIp4jU8J-3" edge="1">
                    <mxGeometry relative="1" as="geometry"/>
                </mxCell>
                <mxCell id="jZkgMG6Zr-wS4klJe3Pi-5" style="edgeStyle=none;html=1;exitX=0.294;exitY=1;exitDx=0;exitDy=0;entryX=0.004;entryY=0.301;entryDx=0;entryDy=0;strokeColor=#FFFFCC;strokeWidth=2;startArrow=ERmandOne;startFill=0;endArrow=ERmany;endFill=0;exitPerimeter=0;entryPerimeter=0;" parent="dS_Z-iAsA6ofLdKqUzIF-1" source="E8_jX4T0FS_W__g-nmVm-2" edge="1">
                    <mxGeometry relative="1" as="geometry">
                        <Array as="points">
                            <mxPoint x="400" y="640"/>
                        </Array>
                    </mxGeometry>
                </mxCell>
                <mxCell id="cgwZVmY2wxuIjGjP-JHa-1" style="edgeStyle=none;html=1;exitX=0.451;exitY=1.001;exitDx=0;exitDy=0;entryX=0;entryY=0.75;entryDx=0;entryDy=0;strokeColor=#FF0000;strokeWidth=2;startArrow=ERmandOne;startFill=0;endArrow=ERmany;endFill=0;exitPerimeter=0;" parent="dS_Z-iAsA6ofLdKqUzIF-1" source="E8_jX4T0FS_W__g-nmVm-2" target="LCvmc8TwBV-O5PTUJR5Y-8" edge="1">
                    <mxGeometry relative="1" as="geometry">
                        <Array as="points">
                            <mxPoint x="420" y="640"/>
                        </Array>
                    </mxGeometry>
                </mxCell>
                <mxCell id="yZLS-hLo8ggPBQvt0VHb-4" style="edgeStyle=none;html=1;exitX=1;exitY=0.75;exitDx=0;exitDy=0;entryX=0.25;entryY=0;entryDx=0;entryDy=0;strokeColor=#FFFFCC;strokeWidth=2;startArrow=ERmandOne;startFill=0;endArrow=ERmany;endFill=0;fillColor=#60a917;" parent="dS_Z-iAsA6ofLdKqUzIF-1" source="E8_jX4T0FS_W__g-nmVm-2" target="yZLS-hLo8ggPBQvt0VHb-0" edge="1">
                    <mxGeometry relative="1" as="geometry">
                        <Array as="points">
                            <mxPoint x="560" y="430"/>
                            <mxPoint x="560" y="490"/>
                            <mxPoint x="920" y="490"/>
                        </Array>
                    </mxGeometry>
                </mxCell>
                <mxCell id="E8_jX4T0FS_W__g-nmVm-2" value="PERSON&lt;br&gt;id&lt;br&gt;name&lt;br&gt;register_date&lt;br&gt;birth_date&lt;br&gt;&lt;font color=&quot;#ff0000&quot;&gt;id_eps&lt;br&gt;id_type_person&lt;br&gt;id_document_type&lt;br&gt;&lt;/font&gt;" style="rounded=0;whiteSpace=wrap;html=1;fillColor=default;gradientColor=none;strokeWidth=2;strokeColor=#FFFFCC;" parent="dS_Z-iAsA6ofLdKqUzIF-1" vertex="1">
                    <mxGeometry x="365" y="340" width="120" height="120" as="geometry"/>
                </mxCell>
                <mxCell id="E8_jX4T0FS_W__g-nmVm-4" value="TYPE_PERSON&lt;br&gt;(natural, juridica)&lt;br&gt;id&lt;br&gt;description" style="rounded=0;whiteSpace=wrap;html=1;fillColor=default;gradientColor=none;strokeWidth=2;strokeColor=#FFFFCC;" parent="dS_Z-iAsA6ofLdKqUzIF-1" vertex="1">
                    <mxGeometry x="365" y="220" width="120" height="80" as="geometry"/>
                </mxCell>
                <mxCell id="E8_jX4T0FS_W__g-nmVm-5" value="DOCUMENT_TYPE&lt;br&gt;id&lt;br&gt;description" style="rounded=0;whiteSpace=wrap;html=1;fillColor=default;gradientColor=none;strokeWidth=2;strokeColor=#FFFFCC;" parent="dS_Z-iAsA6ofLdKqUzIF-1" vertex="1">
                    <mxGeometry x="480" y="150" width="130" height="60" as="geometry"/>
                </mxCell>
                <mxCell id="_HFQptYU_BMw_1H1PmQ_-7" style="edgeStyle=none;html=1;entryX=0.5;entryY=1;entryDx=0;entryDy=0;strokeColor=#FFFFCC;strokeWidth=2;startArrow=ERmany;startFill=0;endArrow=ERmandOne;endFill=0;" parent="dS_Z-iAsA6ofLdKqUzIF-1" source="_HFQptYU_BMw_1H1PmQ_-2" target="_HFQptYU_BMw_1H1PmQ_-4" edge="1">
                    <mxGeometry relative="1" as="geometry"/>
                </mxCell>
                <mxCell id="_HFQptYU_BMw_1H1PmQ_-2" value="ADDRESS&lt;br&gt;id&lt;br&gt;description&lt;br&gt;&lt;font color=&quot;#ff0000&quot;&gt;id_city&lt;br&gt;id_person&lt;/font&gt;" style="rounded=0;whiteSpace=wrap;html=1;fillColor=default;gradientColor=none;strokeWidth=2;strokeColor=#FFFFCC;" parent="dS_Z-iAsA6ofLdKqUzIF-1" vertex="1">
                    <mxGeometry x="140" y="280" width="170" height="80" as="geometry"/>
                </mxCell>
                <mxCell id="_HFQptYU_BMw_1H1PmQ_-8" style="edgeStyle=none;html=1;exitX=0.5;exitY=0;exitDx=0;exitDy=0;entryX=0.5;entryY=1;entryDx=0;entryDy=0;strokeColor=#FFFFCC;strokeWidth=2;startArrow=ERmany;startFill=0;endArrow=ERmandOne;endFill=0;" parent="dS_Z-iAsA6ofLdKqUzIF-1" source="_HFQptYU_BMw_1H1PmQ_-4" target="_HFQptYU_BMw_1H1PmQ_-5" edge="1">
                    <mxGeometry relative="1" as="geometry"/>
                </mxCell>
                <mxCell id="_HFQptYU_BMw_1H1PmQ_-4" value="CITY&lt;br&gt;id&lt;br&gt;name&lt;br&gt;id_departament" style="rounded=0;whiteSpace=wrap;html=1;fillColor=default;gradientColor=none;strokeWidth=2;strokeColor=#FFFFCC;" parent="dS_Z-iAsA6ofLdKqUzIF-1" vertex="1">
                    <mxGeometry x="172.5" y="175" width="105" height="80" as="geometry"/>
                </mxCell>
                <mxCell id="_HFQptYU_BMw_1H1PmQ_-9" style="edgeStyle=none;html=1;exitX=1;exitY=0.5;exitDx=0;exitDy=0;entryX=0;entryY=0.5;entryDx=0;entryDy=0;strokeColor=#FFFFCC;strokeWidth=2;startArrow=ERmany;startFill=0;endArrow=ERmandOne;endFill=0;" parent="dS_Z-iAsA6ofLdKqUzIF-1" source="_HFQptYU_BMw_1H1PmQ_-5" target="_HFQptYU_BMw_1H1PmQ_-6" edge="1">
                    <mxGeometry relative="1" as="geometry"/>
                </mxCell>
                <mxCell id="_HFQptYU_BMw_1H1PmQ_-5" value="DEPARTAMENT&lt;br&gt;id&lt;br&gt;name&lt;br&gt;id_country" style="rounded=0;whiteSpace=wrap;html=1;fillColor=default;gradientColor=none;strokeWidth=2;strokeColor=#FFFFCC;" parent="dS_Z-iAsA6ofLdKqUzIF-1" vertex="1">
                    <mxGeometry x="167.5" y="70" width="115" height="80" as="geometry"/>
                </mxCell>
                <mxCell id="_HFQptYU_BMw_1H1PmQ_-6" value="COUNTRY&lt;br&gt;id&lt;br&gt;name" style="rounded=0;whiteSpace=wrap;html=1;fillColor=default;gradientColor=none;strokeWidth=2;strokeColor=#FFFFCC;" parent="dS_Z-iAsA6ofLdKqUzIF-1" vertex="1">
                    <mxGeometry x="310" y="70" width="90" height="80" as="geometry"/>
                </mxCell>
                <mxCell id="LCvmc8TwBV-O5PTUJR5Y-5" style="edgeStyle=none;html=1;exitX=0;exitY=0.5;exitDx=0;exitDy=0;entryX=0.5;entryY=0;entryDx=0;entryDy=0;strokeColor=#FFFFCC;strokeWidth=2;startArrow=ERmandOne;startFill=0;endArrow=ERmany;endFill=0;" parent="dS_Z-iAsA6ofLdKqUzIF-1" source="LCvmc8TwBV-O5PTUJR5Y-0" target="LCvmc8TwBV-O5PTUJR5Y-2" edge="1">
                    <mxGeometry relative="1" as="geometry">
                        <Array as="points">
                            <mxPoint x="665" y="205"/>
                        </Array>
                    </mxGeometry>
                </mxCell>
                <mxCell id="LCvmc8TwBV-O5PTUJR5Y-0" value="CONTACT_TYPE&lt;br&gt;(corporativo,personal,&lt;br&gt;emergencia)&lt;br&gt;id,&lt;br&gt;name" style="whiteSpace=wrap;html=1;strokeWidth=2;strokeColor=#FFFFCC;" parent="dS_Z-iAsA6ofLdKqUzIF-1" vertex="1">
                    <mxGeometry x="710" y="160" width="140" height="90" as="geometry"/>
                </mxCell>
                <mxCell id="LCvmc8TwBV-O5PTUJR5Y-4" style="edgeStyle=none;html=1;exitX=0;exitY=0.5;exitDx=0;exitDy=0;entryX=1.006;entryY=0.601;entryDx=0;entryDy=0;strokeColor=#FFFFCC;strokeWidth=2;startArrow=ERmandOne;startFill=0;endArrow=ERmany;endFill=0;entryPerimeter=0;" parent="dS_Z-iAsA6ofLdKqUzIF-1" source="LCvmc8TwBV-O5PTUJR5Y-1" target="LCvmc8TwBV-O5PTUJR5Y-2" edge="1">
                    <mxGeometry relative="1" as="geometry">
                        <Array as="points"/>
                    </mxGeometry>
                </mxCell>
                <mxCell id="LCvmc8TwBV-O5PTUJR5Y-1" value="CONTACT_CATEGORY&lt;br&gt;(email,phoneNumber)&lt;br&gt;id,&lt;br&gt;name" style="whiteSpace=wrap;html=1;strokeWidth=2;strokeColor=#FFFFCC;" parent="dS_Z-iAsA6ofLdKqUzIF-1" vertex="1">
                    <mxGeometry x="770" y="300" width="190" height="80" as="geometry"/>
                </mxCell>
                <mxCell id="LCvmc8TwBV-O5PTUJR5Y-2" value="CONTACT&lt;br&gt;id&lt;br&gt;id_person&lt;br&gt;id_contact_type,&lt;br&gt;id_contact_category,&lt;br&gt;description" style="whiteSpace=wrap;html=1;strokeWidth=2;strokeColor=#FFFFCC;" parent="dS_Z-iAsA6ofLdKqUzIF-1" vertex="1">
                    <mxGeometry x="600" y="280" width="130" height="100" as="geometry"/>
                </mxCell>
                <mxCell id="cgwZVmY2wxuIjGjP-JHa-5" style="edgeStyle=none;html=1;exitX=0;exitY=0.75;exitDx=0;exitDy=0;entryX=1.003;entryY=0.352;entryDx=0;entryDy=0;entryPerimeter=0;strokeColor=#FFFFCC;strokeWidth=2;startArrow=ERmandOne;startFill=0;endArrow=ERmany;endFill=0;" parent="dS_Z-iAsA6ofLdKqUzIF-1" source="LCvmc8TwBV-O5PTUJR5Y-7" target="LXIwflVzPLg6ZDJkSQB2-11" edge="1">
                    <mxGeometry relative="1" as="geometry"/>
                </mxCell>
                <mxCell id="LCvmc8TwBV-O5PTUJR5Y-7" value="BUY&lt;br&gt;id&lt;br&gt;buy_date&lt;br&gt;id_provider&lt;br&gt;id_employee" style="whiteSpace=wrap;html=1;strokeWidth=2;strokeColor=#FFFFCC;" parent="dS_Z-iAsA6ofLdKqUzIF-1" vertex="1">
                    <mxGeometry x="587.5" y="750" width="105" height="110" as="geometry"/>
                </mxCell>
                <mxCell id="cgwZVmY2wxuIjGjP-JHa-0" style="edgeStyle=none;html=1;exitX=1;exitY=0.75;exitDx=0;exitDy=0;entryX=-0.001;entryY=0.639;entryDx=0;entryDy=0;strokeColor=#FFFFCC;strokeWidth=2;startArrow=ERmandOne;startFill=0;endArrow=ERmany;endFill=0;entryPerimeter=0;" parent="dS_Z-iAsA6ofLdKqUzIF-1" source="LCvmc8TwBV-O5PTUJR5Y-8" target="jZkgMG6Zr-wS4klJe3Pi-2" edge="1">
                    <mxGeometry relative="1" as="geometry">
                        <mxPoint x="700.0675000000001" y="709.04" as="targetPoint"/>
                        <Array as="points"/>
                    </mxGeometry>
                </mxCell>
                <mxCell id="cgwZVmY2wxuIjGjP-JHa-3" style="edgeStyle=none;html=1;exitX=0.5;exitY=1;exitDx=0;exitDy=0;strokeColor=#FFFFCC;strokeWidth=2;startArrow=ERmandOne;startFill=0;endArrow=ERmany;endFill=0;fillColor=#008a00;entryX=1.003;entryY=0.39;entryDx=0;entryDy=0;entryPerimeter=0;" parent="dS_Z-iAsA6ofLdKqUzIF-1" source="LCvmc8TwBV-O5PTUJR5Y-8" target="LXIwflVzPLg6ZDJkSQB2-13" edge="1">
                    <mxGeometry relative="1" as="geometry">
                        <mxPoint x="530" y="720" as="targetPoint"/>
                        <Array as="points">
                            <mxPoint x="628" y="720"/>
                        </Array>
                    </mxGeometry>
                </mxCell>
                <mxCell id="LCvmc8TwBV-O5PTUJR5Y-8" value="SALE&lt;br&gt;id&lt;br&gt;sale_date&lt;br&gt;id_employee&lt;br&gt;id_person" style="whiteSpace=wrap;html=1;strokeWidth=2;strokeColor=#FFFFCC;" parent="dS_Z-iAsA6ofLdKqUzIF-1" vertex="1">
                    <mxGeometry x="582.5" y="580" width="90" height="80" as="geometry"/>
                </mxCell>
                <mxCell id="jZkgMG6Zr-wS4klJe3Pi-4" style="edgeStyle=none;html=1;exitX=0.827;exitY=0.98;exitDx=0;exitDy=0;entryX=0.185;entryY=0.005;entryDx=0;entryDy=0;entryPerimeter=0;strokeColor=#FFFFCC;strokeWidth=2;startArrow=ERmandOne;startFill=0;endArrow=ERmany;endFill=0;exitPerimeter=0;" parent="dS_Z-iAsA6ofLdKqUzIF-1" source="_HFQptYU_BMw_1H1PmQ_-20" edge="1">
                    <mxGeometry relative="1" as="geometry"/>
                </mxCell>
                <mxCell id="cgwZVmY2wxuIjGjP-JHa-2" style="edgeStyle=none;html=1;exitX=0.5;exitY=1;exitDx=0;exitDy=0;entryX=0;entryY=0.25;entryDx=0;entryDy=0;strokeColor=#FFFFCC;strokeWidth=2;startArrow=ERmandOne;startFill=0;endArrow=ERmany;endFill=0;" parent="dS_Z-iAsA6ofLdKqUzIF-1" source="_HFQptYU_BMw_1H1PmQ_-20" target="LCvmc8TwBV-O5PTUJR5Y-8" edge="1">
                    <mxGeometry relative="1" as="geometry">
                        <Array as="points">
                            <mxPoint x="545" y="600"/>
                        </Array>
                    </mxGeometry>
                </mxCell>
                <mxCell id="cgwZVmY2wxuIjGjP-JHa-7" style="edgeStyle=none;html=1;entryX=0.174;entryY=-0.001;entryDx=0;entryDy=0;strokeColor=#FFFFCC;strokeWidth=2;startArrow=ERmandOne;startFill=0;endArrow=ERmany;endFill=0;entryPerimeter=0;fillColor=#6a00ff;exitX=0.376;exitY=1.022;exitDx=0;exitDy=0;exitPerimeter=0;" parent="dS_Z-iAsA6ofLdKqUzIF-1" source="_HFQptYU_BMw_1H1PmQ_-20" target="LCvmc8TwBV-O5PTUJR5Y-7" edge="1">
                    <mxGeometry relative="1" as="geometry">
                        <Array as="points">
                            <mxPoint x="530" y="680"/>
                            <mxPoint x="606" y="680"/>
                        </Array>
                        <mxPoint x="530" y="560" as="sourcePoint"/>
                    </mxGeometry>
                </mxCell>
                <mxCell id="yZLS-hLo8ggPBQvt0VHb-8" style="edgeStyle=none;html=1;exitX=0.998;exitY=0.657;exitDx=0;exitDy=0;entryX=0;entryY=0.75;entryDx=0;entryDy=0;strokeColor=#FFFFCC;strokeWidth=2;startArrow=ERmandOne;startFill=0;endArrow=ERmany;endFill=0;exitPerimeter=0;" parent="dS_Z-iAsA6ofLdKqUzIF-1" source="_HFQptYU_BMw_1H1PmQ_-20" target="yZLS-hLo8ggPBQvt0VHb-5" edge="1">
                    <mxGeometry relative="1" as="geometry"/>
                </mxCell>
                <mxCell id="_HFQptYU_BMw_1H1PmQ_-20" value="EMPLOYEE&lt;br&gt;&lt;font color=&quot;#ff0000&quot;&gt;id&lt;/font&gt;&lt;br&gt;id_position&lt;br&gt;id_person" style="whiteSpace=wrap;html=1;strokeWidth=2;strokeColor=#FFFFCC;" parent="dS_Z-iAsA6ofLdKqUzIF-1" vertex="1">
                    <mxGeometry x="485" y="500" width="120" height="70" as="geometry"/>
                </mxCell>
                <mxCell id="LXIwflVzPLg6ZDJkSQB2-3" style="edgeStyle=none;html=1;exitX=0.236;exitY=0.995;exitDx=0;exitDy=0;entryX=0;entryY=0.625;entryDx=0;entryDy=0;strokeColor=#FFFFCC;strokeWidth=2;startArrow=ERmandOne;startFill=0;endArrow=ERmany;endFill=0;entryPerimeter=0;exitPerimeter=0;" parent="dS_Z-iAsA6ofLdKqUzIF-1" source="1lE1UvdS-vNx-Yebtrps-0" target="LXIwflVzPLg6ZDJkSQB2-2" edge="1">
                    <mxGeometry relative="1" as="geometry">
                        <Array as="points">
                            <mxPoint x="120" y="840"/>
                        </Array>
                    </mxGeometry>
                </mxCell>
                <mxCell id="LXIwflVzPLg6ZDJkSQB2-8" style="edgeStyle=none;html=1;exitX=0.886;exitY=-0.002;exitDx=0;exitDy=0;entryX=0.171;entryY=0.994;entryDx=0;entryDy=0;strokeColor=#FF0000;strokeWidth=2;startArrow=ERmandOne;startFill=0;endArrow=ERmany;endFill=0;exitPerimeter=0;entryPerimeter=0;" parent="dS_Z-iAsA6ofLdKqUzIF-1" source="LXIwflVzPLg6ZDJkSQB2-2" target="LXIwflVzPLg6ZDJkSQB2-1" edge="1">
                    <mxGeometry relative="1" as="geometry"/>
                </mxCell>
                <mxCell id="1lE1UvdS-vNx-Yebtrps-0" value="MEDICINE_INFO&lt;br&gt;id,&lt;br&gt;name&lt;br&gt;description,&lt;br&gt;price&lt;br&gt;discount&lt;br&gt;need_order : bool&lt;br&gt;&lt;font color=&quot;#ff0000&quot;&gt;id_presentation&lt;br&gt;id_category&lt;/font&gt;&lt;br&gt;id_medicine_brand" style="whiteSpace=wrap;html=1;strokeWidth=2;strokeColor=#FFFFCC;" parent="dS_Z-iAsA6ofLdKqUzIF-1" vertex="1">
                    <mxGeometry x="90" y="625" width="130" height="150" as="geometry"/>
                </mxCell>
                <mxCell id="1lE1UvdS-vNx-Yebtrps-1" style="edgeStyle=none;html=1;strokeColor=#FFFFCC;strokeWidth=2;startArrow=ERmandOne;startFill=0;endArrow=ERmany;endFill=0;exitX=0.303;exitY=0.98;exitDx=0;exitDy=0;entryX=0.637;entryY=-0.004;entryDx=0;entryDy=0;entryPerimeter=0;exitPerimeter=0;" parent="dS_Z-iAsA6ofLdKqUzIF-1" source="1lE1UvdS-vNx-Yebtrps-2" target="1lE1UvdS-vNx-Yebtrps-0" edge="1">
                    <mxGeometry relative="1" as="geometry">
                        <mxPoint x="120.13999999999987" y="700.6700000000001" as="sourcePoint"/>
                        <Array as="points"/>
                    </mxGeometry>
                </mxCell>
                <mxCell id="1lE1UvdS-vNx-Yebtrps-2" value="MEDICINE_BRAND&lt;br&gt;id,&lt;br&gt;name," style="whiteSpace=wrap;html=1;strokeWidth=2;strokeColor=#FFFFCC;" parent="dS_Z-iAsA6ofLdKqUzIF-1" vertex="1">
                    <mxGeometry x="135" y="500" width="120" height="60" as="geometry"/>
                </mxCell>
                <mxCell id="1lE1UvdS-vNx-Yebtrps-3" style="edgeStyle=none;html=1;strokeColor=#FFFFCC;strokeWidth=2;startArrow=ERmandOne;startFill=0;endArrow=ERmany;endFill=0;exitX=0.801;exitY=1.017;exitDx=0;exitDy=0;exitPerimeter=0;entryX=0.153;entryY=-0.001;entryDx=0;entryDy=0;entryPerimeter=0;" parent="dS_Z-iAsA6ofLdKqUzIF-1" source="1lE1UvdS-vNx-Yebtrps-4" target="1lE1UvdS-vNx-Yebtrps-0" edge="1">
                    <mxGeometry relative="1" as="geometry">
                        <mxPoint x="110" y="620" as="targetPoint"/>
                        <mxPoint x="-30" y="738" as="sourcePoint"/>
                    </mxGeometry>
                </mxCell>
                <mxCell id="1lE1UvdS-vNx-Yebtrps-4" value="PRESENTATION&lt;br&gt;id,&lt;br&gt;name," style="whiteSpace=wrap;html=1;strokeWidth=2;strokeColor=#FFFFCC;" parent="dS_Z-iAsA6ofLdKqUzIF-1" vertex="1">
                    <mxGeometry x="30" y="500" width="100" height="60" as="geometry"/>
                </mxCell>
                <mxCell id="yZLS-hLo8ggPBQvt0VHb-7" style="edgeStyle=none;html=1;exitX=0.642;exitY=0.989;exitDx=0;exitDy=0;entryX=0.813;entryY=-0.011;entryDx=0;entryDy=0;strokeColor=#FFFFCC;strokeWidth=2;startArrow=ERmandOne;startFill=0;endArrow=ERmany;endFill=0;exitPerimeter=0;entryPerimeter=0;" parent="dS_Z-iAsA6ofLdKqUzIF-1" source="1lE1UvdS-vNx-Yebtrps-5" target="yZLS-hLo8ggPBQvt0VHb-5" edge="1">
                    <mxGeometry relative="1" as="geometry"/>
                </mxCell>
                <mxCell id="8iRbWEycF_UPBpOA3VMw-0" style="edgeStyle=none;html=1;entryX=0.943;entryY=0;entryDx=0;entryDy=0;fontColor=#FF0000;entryPerimeter=0;exitX=1.006;exitY=0.855;exitDx=0;exitDy=0;exitPerimeter=0;startArrow=ERmandOne;startFill=0;endArrow=ERmany;endFill=0;strokeWidth=2;strokeColor=#FF0000;" parent="dS_Z-iAsA6ofLdKqUzIF-1" source="1lE1UvdS-vNx-Yebtrps-5" target="jZkgMG6Zr-wS4klJe3Pi-2" edge="1">
                    <mxGeometry relative="1" as="geometry">
                        <Array as="points">
                            <mxPoint x="814" y="457"/>
                        </Array>
                    </mxGeometry>
                </mxCell>
                <mxCell id="1lE1UvdS-vNx-Yebtrps-5" value="EPS(entidad prestadora de servicios)&lt;br&gt;id&lt;br&gt;id_eps_type&lt;br&gt;&lt;font color=&quot;#ff0000&quot;&gt;id_person&lt;/font&gt;" style="whiteSpace=wrap;html=1;strokeWidth=2;strokeColor=#FFFFCC;" parent="dS_Z-iAsA6ofLdKqUzIF-1" vertex="1">
                    <mxGeometry x="690" y="380" width="110" height="90" as="geometry"/>
                </mxCell>
                <mxCell id="1lE1UvdS-vNx-Yebtrps-7" style="edgeStyle=none;html=1;exitX=0;exitY=0.5;exitDx=0;exitDy=0;strokeColor=#FFFFCC;strokeWidth=2;startArrow=ERmandOne;startFill=0;endArrow=ERmany;endFill=0;" parent="dS_Z-iAsA6ofLdKqUzIF-1" source="1lE1UvdS-vNx-Yebtrps-6" edge="1">
                    <mxGeometry relative="1" as="geometry">
                        <mxPoint x="800" y="440" as="targetPoint"/>
                    </mxGeometry>
                </mxCell>
                <mxCell id="1lE1UvdS-vNx-Yebtrps-6" value="EPS_TYPE&lt;br&gt;(eps,arl,prepagado)&lt;br&gt;id,&lt;br&gt;name" style="whiteSpace=wrap;html=1;strokeWidth=2;strokeColor=#FFFFCC;" parent="dS_Z-iAsA6ofLdKqUzIF-1" vertex="1">
                    <mxGeometry x="840" y="400" width="130" height="80" as="geometry"/>
                </mxCell>
                <mxCell id="1lE1UvdS-vNx-Yebtrps-9" style="edgeStyle=none;html=1;exitX=1.006;exitY=0.656;exitDx=0;exitDy=0;entryX=-0.009;entryY=0.433;entryDx=0;entryDy=0;strokeColor=#FF0000;strokeWidth=2;startArrow=ERmandOne;startFill=0;endArrow=ERmany;endFill=0;exitPerimeter=0;entryPerimeter=0;" parent="dS_Z-iAsA6ofLdKqUzIF-1" source="E8_jX4T0FS_W__g-nmVm-2" target="1lE1UvdS-vNx-Yebtrps-5" edge="1">
                    <mxGeometry relative="1" as="geometry">
                        <Array as="points"/>
                        <mxPoint x="620.0000000000002" y="540" as="sourcePoint"/>
                    </mxGeometry>
                </mxCell>
                <mxCell id="1lE1UvdS-vNx-Yebtrps-10" style="edgeStyle=none;html=1;exitX=0.628;exitY=0.996;exitDx=0;exitDy=0;entryX=0.005;entryY=0.284;entryDx=0;entryDy=0;strokeColor=#FF0000;strokeWidth=2;startArrow=ERmandOne;startFill=0;endArrow=ERmany;endFill=0;entryPerimeter=0;exitPerimeter=0;" parent="dS_Z-iAsA6ofLdKqUzIF-1" source="E8_jX4T0FS_W__g-nmVm-2" target="_HFQptYU_BMw_1H1PmQ_-20" edge="1">
                    <mxGeometry relative="1" as="geometry">
                        <mxPoint x="560" y="600" as="sourcePoint"/>
                        <Array as="points">
                            <mxPoint x="440" y="521"/>
                        </Array>
                    </mxGeometry>
                </mxCell>
                <mxCell id="LXIwflVzPLg6ZDJkSQB2-14" style="edgeStyle=none;html=1;exitX=-0.001;exitY=0.795;exitDx=0;exitDy=0;strokeColor=#FFFFCC;strokeWidth=2;startArrow=ERmandOne;startFill=0;endArrow=ERmany;endFill=0;exitPerimeter=0;" parent="dS_Z-iAsA6ofLdKqUzIF-1" edge="1">
                    <mxGeometry relative="1" as="geometry">
                        <mxPoint x="530" y="710" as="targetPoint"/>
                        <Array as="points">
                            <mxPoint x="560" y="690"/>
                            <mxPoint x="560" y="710"/>
                        </Array>
                    </mxGeometry>
                </mxCell>
                <mxCell id="t7uX6kNF_CkkwIp4jU8J-0" style="edgeStyle=none;html=1;exitX=0.5;exitY=1;exitDx=0;exitDy=0;entryX=0.53;entryY=-0.011;entryDx=0;entryDy=0;fontColor=#FFFFFF;endArrow=ERmany;endFill=0;startArrow=ERmandOne;startFill=0;strokeColor=#FFFFCC;strokeWidth=2;entryPerimeter=0;" parent="dS_Z-iAsA6ofLdKqUzIF-1" source="t7uX6kNF_CkkwIp4jU8J-1" target="t7uX6kNF_CkkwIp4jU8J-4" edge="1">
                    <mxGeometry relative="1" as="geometry">
                        <Array as="points"/>
                    </mxGeometry>
                </mxCell>
                <mxCell id="t7uX6kNF_CkkwIp4jU8J-1" value="ROLE&lt;br&gt;(admin,user)&lt;br&gt;id&lt;br&gt;description" style="whiteSpace=wrap;html=1;strokeWidth=2;strokeColor=#FFFFCC;" parent="dS_Z-iAsA6ofLdKqUzIF-1" vertex="1">
                    <mxGeometry x="-5" y="180" width="140" height="70" as="geometry"/>
                </mxCell>
                <mxCell id="t7uX6kNF_CkkwIp4jU8J-2" style="edgeStyle=none;html=1;exitX=-0.001;exitY=0.582;exitDx=0;exitDy=0;entryX=0.526;entryY=0.979;entryDx=0;entryDy=0;strokeColor=#FFFFCC;strokeWidth=2;fontColor=#FFFFFF;startArrow=ERmandOne;startFill=0;endArrow=ERmany;endFill=0;exitPerimeter=0;entryPerimeter=0;" parent="dS_Z-iAsA6ofLdKqUzIF-1" source="t7uX6kNF_CkkwIp4jU8J-3" target="t7uX6kNF_CkkwIp4jU8J-4" edge="1">
                    <mxGeometry relative="1" as="geometry">
                        <Array as="points">
                            <mxPoint x="65" y="440"/>
                        </Array>
                    </mxGeometry>
                </mxCell>
                <mxCell id="t7uX6kNF_CkkwIp4jU8J-3" value="USER&lt;br&gt;id,&lt;br&gt;&lt;font color=&quot;#ff0000&quot;&gt;id_person&lt;/font&gt;&lt;br&gt;username,&lt;br&gt;password,&lt;br&gt;email,&lt;br&gt;Access_token,&lt;br&gt;refresh_token" style="whiteSpace=wrap;html=1;fontColor=#FFFFFF;strokeWidth=2;strokeColor=#FFFFCC;" parent="dS_Z-iAsA6ofLdKqUzIF-1" vertex="1">
                    <mxGeometry x="120" y="370" width="100" height="120" as="geometry"/>
                </mxCell>
                <mxCell id="t7uX6kNF_CkkwIp4jU8J-4" value="ROLE_USER&lt;br&gt;&lt;font color=&quot;#ff0000&quot;&gt;(intermedia)&lt;/font&gt;&lt;br&gt;id_user,&lt;br&gt;id_role" style="whiteSpace=wrap;html=1;strokeWidth=2;strokeColor=#FFFFCC;" parent="dS_Z-iAsA6ofLdKqUzIF-1" vertex="1">
                    <mxGeometry x="20" y="310" width="85" height="60" as="geometry"/>
                </mxCell>
                <mxCell id="jZkgMG6Zr-wS4klJe3Pi-1" style="edgeStyle=none;html=1;exitX=0.68;exitY=1.012;exitDx=0;exitDy=0;strokeColor=#FFFFCC;strokeWidth=2;startArrow=ERmandOne;startFill=0;endArrow=ERmany;endFill=0;entryX=1.003;entryY=0.293;entryDx=0;entryDy=0;entryPerimeter=0;exitPerimeter=0;" parent="dS_Z-iAsA6ofLdKqUzIF-1" source="jZkgMG6Zr-wS4klJe3Pi-0" target="_HFQptYU_BMw_1H1PmQ_-20" edge="1">
                    <mxGeometry relative="1" as="geometry">
                        <Array as="points">
                            <mxPoint x="651" y="522"/>
                        </Array>
                        <mxPoint x="520" y="560" as="targetPoint"/>
                    </mxGeometry>
                </mxCell>
                <mxCell id="jZkgMG6Zr-wS4klJe3Pi-0" value="POSITION&lt;br&gt;id&lt;br&gt;name" style="whiteSpace=wrap;html=1;strokeWidth=2;strokeColor=#FFFFCC;" parent="dS_Z-iAsA6ofLdKqUzIF-1" vertex="1">
                    <mxGeometry x="600" y="430" width="75" height="50" as="geometry"/>
                </mxCell>
                <mxCell id="jZkgMG6Zr-wS4klJe3Pi-2" value="ORDER&lt;br&gt;id&lt;br&gt;date&lt;br&gt;detail&lt;br&gt;expire_date&lt;br&gt;id_sale&lt;br&gt;&lt;font color=&quot;#ff0000&quot;&gt;id_eps&lt;/font&gt;" style="whiteSpace=wrap;html=1;strokeWidth=2;strokeColor=#FFFFCC;" parent="dS_Z-iAsA6ofLdKqUzIF-1" vertex="1">
                    <mxGeometry x="710" y="570" width="110" height="110" as="geometry"/>
                </mxCell>
                <mxCell id="LXIwflVzPLg6ZDJkSQB2-16" style="edgeStyle=none;html=1;exitX=0.782;exitY=1.01;exitDx=0;exitDy=0;entryX=0;entryY=0.333;entryDx=0;entryDy=0;strokeColor=#FFFFCC;strokeWidth=2;startArrow=ERmandOne;startFill=0;endArrow=ERmany;endFill=0;entryPerimeter=0;exitPerimeter=0;" parent="dS_Z-iAsA6ofLdKqUzIF-1" source="LXIwflVzPLg6ZDJkSQB2-1" target="LXIwflVzPLg6ZDJkSQB2-11" edge="1">
                    <mxGeometry relative="1" as="geometry">
                        <Array as="points">
                            <mxPoint x="340" y="830"/>
                        </Array>
                    </mxGeometry>
                </mxCell>
                <mxCell id="cgwZVmY2wxuIjGjP-JHa-4" style="edgeStyle=none;html=1;exitX=0.996;exitY=0.576;exitDx=0;exitDy=0;entryX=0.001;entryY=0.142;entryDx=0;entryDy=0;strokeColor=#FFFFCC;strokeWidth=2;startArrow=ERmandOne;startFill=0;endArrow=ERmany;endFill=0;exitPerimeter=0;entryPerimeter=0;" parent="dS_Z-iAsA6ofLdKqUzIF-1" source="LXIwflVzPLg6ZDJkSQB2-1" target="LXIwflVzPLg6ZDJkSQB2-13" edge="1">
                    <mxGeometry relative="1" as="geometry"/>
                </mxCell>
                <mxCell id="LXIwflVzPLg6ZDJkSQB2-1" value="MEDICINE&lt;br&gt;id&lt;br&gt;creation_date&lt;br&gt;expire_date&lt;br&gt;&lt;font color=&quot;#ff0000&quot;&gt;id_inventory&lt;/font&gt;&lt;br&gt;id_state" style="whiteSpace=wrap;html=1;strokeWidth=2;strokeColor=#FFFFCC;" parent="dS_Z-iAsA6ofLdKqUzIF-1" vertex="1">
                    <mxGeometry x="250" y="640" width="115" height="100" as="geometry"/>
                </mxCell>
                <mxCell id="LXIwflVzPLg6ZDJkSQB2-2" value="INVENTORY&lt;br&gt;id&lt;br&gt;ubication&lt;br&gt;total_stock&lt;br&gt;id_medicine_info" style="whiteSpace=wrap;html=1;strokeWidth=2;strokeColor=#FFFFCC;" parent="dS_Z-iAsA6ofLdKqUzIF-1" vertex="1">
                    <mxGeometry x="172.5" y="790" width="110" height="80" as="geometry"/>
                </mxCell>
                <mxCell id="LXIwflVzPLg6ZDJkSQB2-10" style="edgeStyle=none;html=1;exitX=0.192;exitY=-0.006;exitDx=0;exitDy=0;strokeColor=#FFFFCC;strokeWidth=2;startArrow=ERmandOne;startFill=0;endArrow=ERmany;endFill=0;entryX=0.597;entryY=1;entryDx=0;entryDy=0;exitPerimeter=0;entryPerimeter=0;" parent="dS_Z-iAsA6ofLdKqUzIF-1" source="LXIwflVzPLg6ZDJkSQB2-9" target="LXIwflVzPLg6ZDJkSQB2-1" edge="1">
                    <mxGeometry relative="1" as="geometry">
                        <mxPoint x="335" y="870" as="sourcePoint"/>
                        <mxPoint x="330" y="740" as="targetPoint"/>
                        <Array as="points"/>
                    </mxGeometry>
                </mxCell>
                <mxCell id="LXIwflVzPLg6ZDJkSQB2-9" value="STATE&lt;br&gt;(vendida,&lt;br&gt;comprada,&lt;br&gt;vencida,&lt;br&gt;dañado)&lt;br&gt;id&lt;br&gt;name" style="whiteSpace=wrap;html=1;strokeWidth=2;strokeColor=#FFFFCC;" parent="dS_Z-iAsA6ofLdKqUzIF-1" vertex="1">
                    <mxGeometry x="300" y="850" width="100" height="120" as="geometry"/>
                </mxCell>
                <mxCell id="LXIwflVzPLg6ZDJkSQB2-11" value="BUY_DETAIL&lt;br&gt;&lt;font color=&quot;#ff0000&quot;&gt;(intermedia)&lt;/font&gt;&lt;br&gt;id_medicine&lt;br&gt;id_buy" style="whiteSpace=wrap;html=1;strokeWidth=2;strokeColor=#FFFFCC;" parent="dS_Z-iAsA6ofLdKqUzIF-1" vertex="1">
                    <mxGeometry x="425" y="800" width="127" height="90" as="geometry"/>
                </mxCell>
                <mxCell id="LXIwflVzPLg6ZDJkSQB2-13" value="SALE_DETAIL&lt;br&gt;&lt;font color=&quot;#ff0000&quot;&gt;(intermedia)&lt;/font&gt;&lt;br&gt;id_medicine&lt;br&gt;id_sale" style="whiteSpace=wrap;html=1;strokeWidth=2;strokeColor=#FFFFCC;" parent="dS_Z-iAsA6ofLdKqUzIF-1" vertex="1">
                    <mxGeometry x="400" y="685" width="127" height="90" as="geometry"/>
                </mxCell>
                <mxCell id="o6aN8j7gNJKLcZvoKQG4-7" style="edgeStyle=none;html=1;exitX=1;exitY=0.5;exitDx=0;exitDy=0;entryX=0.009;entryY=0.439;entryDx=0;entryDy=0;entryPerimeter=0;strokeColor=#FFFFCC;strokeWidth=2;startArrow=ERmandOne;startFill=0;endArrow=ERmany;endFill=0;" parent="dS_Z-iAsA6ofLdKqUzIF-1" source="o6aN8j7gNJKLcZvoKQG4-6" target="1lE1UvdS-vNx-Yebtrps-0" edge="1">
                    <mxGeometry relative="1" as="geometry"/>
                </mxCell>
                <mxCell id="o6aN8j7gNJKLcZvoKQG4-6" value="CATEGORY&lt;br&gt;(antidepresivo,laxante&lt;br&gt;,antibiotico)&lt;br&gt;id&lt;br&gt;name" style="whiteSpace=wrap;html=1;strokeWidth=2;strokeColor=#FFFFCC;" parent="dS_Z-iAsA6ofLdKqUzIF-1" vertex="1">
                    <mxGeometry x="-80" y="650" width="130" height="80" as="geometry"/>
                </mxCell>
                <mxCell id="yZLS-hLo8ggPBQvt0VHb-3" style="edgeStyle=none;html=1;exitX=0.25;exitY=1;exitDx=0;exitDy=0;entryX=1;entryY=0.5;entryDx=0;entryDy=0;strokeColor=#FFFFCC;strokeWidth=2;startArrow=ERmandOne;startFill=0;endArrow=ERmany;endFill=0;" parent="dS_Z-iAsA6ofLdKqUzIF-1" source="yZLS-hLo8ggPBQvt0VHb-0" target="LCvmc8TwBV-O5PTUJR5Y-7" edge="1">
                    <mxGeometry relative="1" as="geometry">
                        <Array as="points">
                            <mxPoint x="920" y="805"/>
                        </Array>
                    </mxGeometry>
                </mxCell>
                <mxCell id="yZLS-hLo8ggPBQvt0VHb-0" value="PROVIDER&lt;br&gt;&lt;font color=&quot;#ff0000&quot;&gt;id&lt;br&gt;name&lt;/font&gt;&lt;br&gt;id_type_provider&lt;br&gt;id_person" style="whiteSpace=wrap;html=1;strokeWidth=2;strokeColor=#FFFFCC;" parent="dS_Z-iAsA6ofLdKqUzIF-1" vertex="1">
                    <mxGeometry x="890" y="580" width="120" height="90" as="geometry"/>
                </mxCell>
                <mxCell id="yZLS-hLo8ggPBQvt0VHb-2" style="edgeStyle=none;html=1;exitX=0.25;exitY=1;exitDx=0;exitDy=0;entryX=1;entryY=0.5;entryDx=0;entryDy=0;strokeWidth=2;endArrow=ERoneToMany;endFill=0;startArrow=ERmandOne;startFill=0;strokeColor=#FFFFCC;" parent="dS_Z-iAsA6ofLdKqUzIF-1" source="yZLS-hLo8ggPBQvt0VHb-1" target="yZLS-hLo8ggPBQvt0VHb-0" edge="1">
                    <mxGeometry relative="1" as="geometry">
                        <Array as="points">
                            <mxPoint x="1070" y="625"/>
                        </Array>
                    </mxGeometry>
                </mxCell>
                <mxCell id="yZLS-hLo8ggPBQvt0VHb-1" value="PROVIDER_TYPE&lt;br&gt;id&lt;br&gt;name" style="whiteSpace=wrap;html=1;strokeWidth=2;strokeColor=#FFFFCC;" parent="dS_Z-iAsA6ofLdKqUzIF-1" vertex="1">
                    <mxGeometry x="1040" y="515" width="120" height="65" as="geometry"/>
                </mxCell>
                <mxCell id="yZLS-hLo8ggPBQvt0VHb-5" value="EMPLOYEE_EPS&lt;br&gt;&lt;font color=&quot;#ff0000&quot;&gt;(intermedia)&lt;/font&gt;&lt;br&gt;id_employee&lt;br&gt;id_eps" style="whiteSpace=wrap;html=1;strokeWidth=2;strokeColor=#FFFFCC;" parent="dS_Z-iAsA6ofLdKqUzIF-1" vertex="1">
                    <mxGeometry x="672.5" y="500" width="110" height="60" as="geometry"/>
                </mxCell>
            </root>
        </mxGraphModel>
    </diagram>
    <diagram id="gVezQtmelDm2tTk2F8r-" name="V3.0">
        <mxGraphModel dx="1514" dy="702" grid="1" gridSize="10" guides="1" tooltips="1" connect="1" arrows="1" fold="1" page="1" pageScale="1" pageWidth="827" pageHeight="1169" background="#ffffff" math="0" shadow="0">
            <root>
                <mxCell id="0"/>
                <mxCell id="1" parent="0"/>
            </root>
        </mxGraphModel>
    </diagram>
</mxfile>